<?xml version="1.0" standalone="no"?>
<!DOCTYPE svg PUBLIC "-//W3C//DTD SVG 20010904//EN"
 "http://www.w3.org/TR/2001/REC-SVG-20010904/DTD/svg10.dtd">
<svg version="1.0" xmlns="http://www.w3.org/2000/svg"
 width="900pt" height="591.000000pt" viewBox="0 0 900 591"
 preserveAspectRatio="xMidYMid meet">
<metadata>
Created by potrace 1.10, written by Peter Selinger 2001-2011
</metadata>
<g transform="translate(0.000000,591.000000) scale(0.100000,-0.100000)"
fill="#000000" stroke="none">
<path d="M3109 5388 c-5 -13 -35 -41 -66 -63 -111 -80 -272 -220 -468 -408
-228 -218 -257 -252 -511 -599 -76 -104 -184 -282 -184 -304 0 -17 -17 -59
-60 -144 -33 -67 -64 -164 -107 -340 -25 -103 -25 -387 1 -473 36 -124 104
-240 188 -325 125 -127 223 -189 363 -232 39 -12 90 -29 114 -37 35 -13 68
-15 158 -9 63 3 123 11 133 16 10 6 46 10 79 10 33 0 62 4 65 9 3 4 34 19 68
31 35 13 74 34 87 47 13 13 36 26 50 30 44 10 101 43 191 108 93 67 129 91
295 191 61 37 112 70 115 73 3 4 30 27 60 50 30 24 64 60 74 80 33 62 84 122
129 151 55 34 97 79 97 102 0 24 -17 23 -30 -2 -6 -11 -23 -23 -37 -27 -38 -9
-92 -42 -103 -63 -15 -28 -118 -91 -153 -94 -18 -2 -48 -13 -67 -24 -19 -12
-44 -26 -55 -32 -11 -6 -33 -19 -50 -30 -16 -10 -64 -36 -105 -56 -41 -21 -91
-49 -110 -64 -46 -35 -143 -58 -165 -40 -19 16 -16 50 5 61 8 5 49 28 90 52
41 23 98 53 125 66 28 14 76 42 108 63 32 21 63 38 69 38 11 0 81 52 111 82
10 10 23 18 29 18 6 0 8 3 5 7 -4 3 -19 0 -35 -7 -15 -7 -43 -20 -62 -29 -19
-9 -51 -28 -71 -43 -20 -16 -44 -28 -52 -28 -9 0 -19 -5 -23 -11 -4 -7 -21 -9
-42 -5 -25 4 -43 0 -61 -13 -65 -45 -450 -241 -474 -241 -4 0 -46 -19 -94 -41
-49 -23 -101 -45 -118 -50 -356 -97 -378 -100 -475 -74 -30 8 -68 15 -83 15
-43 0 -87 49 -87 97 -1 21 -7 49 -15 63 -19 33 -19 108 0 200 9 41 23 109 32
150 22 111 40 164 71 217 16 27 31 57 35 68 15 51 35 97 45 107 7 7 12 20 12
29 0 10 4 21 10 24 5 3 14 23 20 44 5 20 27 56 48 80 21 23 46 65 55 92 12 34
26 54 44 62 16 7 35 33 54 72 25 52 52 91 127 180 111 131 142 165 190 214 32
31 67 67 78 81 30 36 150 148 214 200 30 25 57 47 60 51 14 17 171 129 205
148 51 27 57 27 95 -6 l32 -27 -5 -165 c-2 -91 -10 -193 -17 -226 -16 -83 -38
-172 -55 -224 -8 -25 -12 -48 -9 -53 11 -17 41 -7 62 22 13 16 31 30 41 30 27
0 65 40 85 90 34 87 43 105 75 172 32 66 32 69 32 204 -1 143 -9 185 -58 291
-12 28 -41 73 -63 98 -22 25 -45 55 -50 66 -6 10 -45 48 -86 84 -55 46 -91 69
-129 80 -71 20 -84 19 -96 -7z m-959 -1189 c0 -5 -7 -9 -15 -9 -15 0 -20 12
-9 23 8 8 24 -1 24 -14z m-47 -72 c-10 -12 -19 -24 -20 -26 -1 -1 -7 0 -13 4
-7 4 -3 15 12 30 28 29 46 21 21 -8z m-60 -86 c-6 -3 -13 -16 -17 -28 -8 -25
-26 -31 -26 -10 0 19 44 70 49 56 2 -6 -1 -14 -6 -18z m-45 -78 c-5 -25 -28
-28 -28 -4 0 12 6 21 16 21 9 0 14 -7 12 -17z m-80 -145 c-6 -18 -28 -21 -28
-4 0 9 7 16 16 16 9 0 14 -5 12 -12z"/>
<path d="M5900 5372 c-20 -21 -74 -67 -120 -102 -47 -35 -89 -69 -95 -75 -5
-6 -30 -27 -55 -45 -25 -19 -97 -85 -160 -146 -63 -62 -155 -149 -203 -195
-76 -72 -200 -221 -315 -379 -18 -25 -55 -75 -82 -112 -28 -37 -50 -69 -50
-72 0 -3 -20 -34 -45 -70 -25 -37 -45 -69 -45 -73 0 -3 -6 -14 -14 -22 -7 -9
-21 -41 -31 -71 -10 -30 -38 -96 -62 -147 -24 -50 -43 -97 -43 -103 0 -7 -7
-33 -15 -59 -40 -129 -75 -318 -75 -406 0 -63 33 -272 48 -302 5 -10 16 -33
25 -51 9 -19 17 -39 17 -46 0 -7 13 -25 30 -41 16 -16 30 -35 30 -43 0 -38
221 -223 320 -269 36 -16 92 -37 125 -47 33 -10 77 -25 98 -34 29 -12 62 -14
157 -9 66 3 128 11 139 16 11 6 46 11 79 11 41 0 63 5 72 15 7 8 18 15 25 15
22 0 101 39 119 59 9 10 36 24 60 30 23 6 60 22 82 37 21 15 72 50 112 78 41
28 81 56 90 61 9 6 43 28 77 51 33 22 67 43 75 47 8 4 29 16 45 27 17 11 37
23 45 27 20 9 128 90 163 122 16 14 35 40 43 56 27 57 73 110 125 145 53 35
116 112 97 119 -5 2 -22 -8 -36 -22 -15 -13 -39 -27 -55 -31 -15 -4 -44 -23
-65 -44 -55 -55 -123 -98 -166 -105 -21 -3 -90 -37 -154 -74 -65 -38 -137 -77
-162 -88 -25 -10 -59 -31 -75 -45 -33 -27 -133 -57 -159 -47 -10 4 -16 18 -16
36 0 26 7 33 53 56 132 67 268 142 300 168 20 15 41 27 48 27 15 0 109 71 109
82 0 19 -39 2 -127 -55 -24 -15 -48 -27 -54 -27 -6 0 -17 -7 -25 -15 -11 -11
-19 -12 -32 -4 -19 12 -48 1 -147 -56 -59 -35 -302 -156 -360 -180 -16 -7 -50
-21 -75 -31 -25 -10 -52 -23 -60 -29 -30 -23 -125 -54 -265 -88 -169 -41 -196
-47 -233 -47 -21 0 -61 7 -88 15 -27 8 -60 15 -72 15 -13 0 -37 8 -52 17 -24
14 -32 29 -45 87 -9 39 -21 82 -26 95 -7 17 -7 46 1 90 26 149 42 228 56 271
8 25 14 56 14 70 1 14 12 43 25 65 45 76 65 116 65 131 0 8 16 45 35 81 19 36
35 72 35 80 0 18 26 59 67 105 17 20 37 54 42 76 7 26 24 49 51 71 22 17 40
39 40 48 0 41 153 234 318 400 39 41 72 78 72 82 0 20 295 276 418 363 112 79
153 83 186 19 13 -24 14 -56 6 -202 -9 -164 -23 -257 -55 -374 -24 -86 -25
-96 -7 -102 10 -4 25 4 42 25 15 18 35 32 45 32 22 0 85 65 85 89 0 9 7 26 15
37 8 10 15 25 15 32 0 7 15 46 34 85 19 40 37 90 41 112 9 53 6 231 -4 259 -5
11 -17 48 -27 81 -21 71 -34 93 -91 161 -24 28 -43 56 -43 61 0 5 -23 30 -51
54 -29 24 -57 49 -63 54 -30 29 -76 53 -118 63 -62 16 -58 17 -98 -26z m-992
-1244 c-4 -27 -28 -36 -28 -10 0 20 8 32 22 32 5 0 8 -10 6 -22z m-58 -82 c0
-16 -18 -31 -27 -22 -8 8 5 36 17 36 5 0 10 -6 10 -14z m-30 -50 c0 -8 -5 -18
-11 -21 -5 -4 -14 -18 -19 -31 -5 -13 -14 -24 -20 -24 -13 0 -13 27 1 35 5 4
14 18 19 31 10 26 30 33 30 10z m-90 -182 c0 -8 -7 -14 -15 -14 -15 0 -21 21
-9 33 10 9 24 -2 24 -19z"/>
<path d="M3704 3365 c-3 -8 -14 -17 -25 -20 -11 -4 -17 -10 -14 -15 3 -5 24 0
45 11 22 12 37 25 34 30 -8 14 -34 11 -40 -6z"/>
<path d="M6491 3355 c-13 -14 -21 -28 -19 -31 9 -8 88 37 82 47 -10 16 -39 9
-63 -16z"/>
<path d="M3994 2893 c-25 -17 -72 -122 -89 -195 -24 -107 -16 -141 39 -173 54
-32 63 -31 134 5 33 17 64 30 70 30 6 0 24 12 41 26 29 24 31 30 31 93 0 59
-4 73 -29 108 -58 80 -158 134 -197 106z"/>
<path d="M6791 2881 c-52 -52 -100 -224 -84 -304 6 -29 67 -77 98 -77 23 0
167 69 193 93 12 11 22 32 23 46 0 14 4 35 8 46 16 40 -40 127 -117 183 -51
36 -93 41 -121 13z"/>
<path d="M3570 1294 c-8 -2 -31 -5 -51 -9 -23 -3 -49 -19 -73 -42 -34 -34 -36
-40 -36 -98 0 -57 3 -64 35 -96 23 -24 58 -43 105 -58 87 -29 130 -66 130
-113 0 -39 -23 -70 -69 -93 -43 -22 -91 -15 -137 20 -61 47 -99 16 -43 -34 24
-22 46 -32 86 -37 105 -13 171 17 205 92 39 89 -10 163 -133 203 -112 37 -149
87 -120 164 20 52 126 74 175 36 29 -23 59 -22 64 2 5 28 -88 70 -138 63z"/>
<path d="M5190 1289 c-80 -13 -149 -64 -189 -138 -27 -52 -31 -68 -31 -140 0
-94 24 -153 82 -207 71 -65 83 -69 209 -68 102 0 120 3 152 23 l37 23 0 117
c0 78 -4 121 -12 129 -14 14 -136 16 -156 3 -8 -5 -12 -17 -10 -27 2 -15 15
-20 63 -24 l60 -5 3 -65 c5 -95 0 -104 -59 -123 -120 -39 -227 -1 -292 103
-18 29 -22 50 -22 120 0 73 4 91 25 125 61 99 169 138 272 98 24 -9 50 -22 59
-30 8 -7 20 -13 26 -13 14 0 24 26 17 43 -7 18 -62 44 -110 52 -22 4 -46 8
-54 10 -8 1 -40 -2 -70 -6z"/>
<path d="M7215 1277 c-80 -36 -109 -137 -61 -208 23 -33 116 -89 149 -89 15 0
80 -39 89 -54 4 -6 8 -30 8 -53 0 -34 -5 -46 -30 -67 -55 -46 -125 -44 -181 5
-32 27 -59 25 -59 -5 0 -17 11 -31 38 -48 50 -31 170 -33 220 -3 64 38 90 121
58 183 -20 39 -44 57 -106 82 -111 43 -139 61 -149 94 -15 44 0 87 39 114 43
29 91 28 144 -3 39 -23 45 -24 56 -10 11 14 9 20 -13 43 -24 23 -36 27 -100
29 -45 2 -83 -2 -102 -10z"/>
<path d="M1435 1258 c-3 -13 -4 -133 -3 -268 l3 -245 119 -3 c130 -3 180 9
245 57 124 93 131 302 14 413 -55 52 -112 68 -249 68 -120 0 -124 -1 -129 -22z
m214 -29 c41 -7 82 -21 106 -38 52 -34 95 -117 95 -181 0 -71 -43 -147 -103
-184 -45 -27 -57 -29 -150 -30 l-102 -1 -3 200 c-1 110 0 210 3 223 4 18 12
22 46 22 22 0 70 -5 108 -11z"/>
<path d="M2485 1258 c-3 -13 -4 -133 -3 -268 l3 -245 173 -3 c166 -2 172 -2
172 18 0 26 -19 30 -165 33 l-120 2 0 100 0 100 125 5 c108 4 125 7 128 22 3
16 -10 18 -125 20 l-128 3 -3 75 c-5 127 -13 120 138 120 123 0 130 1 130 20
0 19 -7 20 -160 20 -157 0 -160 0 -165 -22z"/>
<path d="M4335 1267 c-3 -7 -4 -127 -3 -267 3 -247 4 -255 23 -255 19 0 20 8
23 245 1 135 0 255 -3 268 -6 24 -33 30 -40 9z"/>
<path d="M6080 1009 l0 -270 23 3 c22 3 22 3 25 221 2 162 5 218 14 215 7 -3
43 -49 82 -104 138 -196 168 -240 199 -287 28 -44 33 -48 66 -45 l36 3 3 245
c1 135 0 255 -3 268 -4 17 -12 22 -28 20 -22 -3 -22 -5 -27 -221 -3 -136 -9
-216 -15 -215 -5 1 -32 33 -59 72 -27 39 -69 99 -93 133 -24 35 -64 93 -89
130 -64 94 -73 103 -106 103 l-28 0 0 -271z"/>
</g>
</svg>
